<svg width="48" height="49" viewBox="0 0 48 49" fill="none" xmlns="http://www.w3.org/2000/svg">
<circle cx="23.9105" cy="24.7503" r="23.9085" fill="#EE2A64"/>
<path d="M20.6252 17.2037C18.012 20.1371 16.2186 24.3515 16.0521 24.7486L11.415 22.7631L16.6029 17.5752C17.205 16.9732 18.076 16.7042 18.9215 16.8707L20.6252 17.2037ZM23.1615 30.846C23.1615 30.846 27.9523 28.8605 30.7063 26.1064C37.6235 19.1892 36.4707 13.7836 36.0992 12.5666C34.8823 12.1824 29.4766 11.0423 22.5594 17.9595C19.8053 20.7136 17.8199 25.5044 17.8199 25.5044L23.1615 30.846ZM31.4621 28.0407C28.5287 30.6538 24.3143 32.4472 23.9172 32.6137L25.9027 37.2508L31.0906 32.0629C31.6927 31.4608 31.9617 30.5898 31.7952 29.7444L31.4621 28.0407ZM20.3818 32.1269C20.3818 33.1901 19.9463 34.1509 19.2545 34.8426C17.743 36.3541 11.415 37.2508 11.415 37.2508C11.415 37.2508 12.3117 30.9228 13.8232 29.4113C14.515 28.7196 15.4757 28.2841 16.5389 28.2841C18.6653 28.2841 20.3818 30.0006 20.3818 32.1269ZM25.5056 20.5983C25.5056 19.1892 26.6585 18.0364 28.0676 18.0364C29.4766 18.0364 30.6295 19.1892 30.6295 20.5983C30.6295 22.0073 29.4766 23.1602 28.0676 23.1602C26.6585 23.1602 25.5056 22.0073 25.5056 20.5983Z" fill="white"/>
</svg>
