<svg width="21" height="20" viewBox="0 0 21 20" fill="none" xmlns="http://www.w3.org/2000/svg">
<path d="M17.9645 2.93L16.5545 4.34C17.9945 5.79 18.8945 7.79 18.8945 10C18.8945 14.42 15.3145 18 10.8945 18C6.47453 18 2.89453 14.42 2.89453 10C2.89453 5.92 5.94453 2.56 9.89453 2.07V4.09C7.05453 4.57 4.89453 7.03 4.89453 10C4.89453 13.31 7.58453 16 10.8945 16C14.2045 16 16.8945 13.31 16.8945 10C16.8945 8.34 16.2245 6.84 15.1345 5.76L13.7245 7.17C14.4445 7.9 14.8945 8.9 14.8945 10C14.8945 12.21 13.1045 14 10.8945 14C8.68453 14 6.89453 12.21 6.89453 10C6.89453 8.14 8.17453 6.59 9.89453 6.14V8.28C9.29453 8.63 8.89453 9.26 8.89453 10C8.89453 11.1 9.79453 12 10.8945 12C11.9945 12 12.8945 11.1 12.8945 10C12.8945 9.26 12.4945 8.62 11.8945 8.28V0H10.8945C5.37453 0 0.894531 4.48 0.894531 10C0.894531 15.52 5.37453 20 10.8945 20C16.4145 20 20.8945 15.52 20.8945 10C20.8945 7.24 19.7745 4.74 17.9645 2.93Z" fill="white"/>
</svg>
