<svg width="21" height="25" viewBox="0 0 21 25" fill="none" xmlns="http://www.w3.org/2000/svg">
<path d="M20.0764 17.4131C18.5772 16.135 17.7175 14.267 17.7175 12.288V9.5C17.7175 5.98108 15.1254 3.06805 11.7679 2.58008V1.49994C11.7679 0.94696 11.3236 0.5 10.7762 0.5C10.229 0.5 9.78468 0.94696 9.78468 1.49994V2.58008C6.42607 3.06805 3.83513 5.98108 3.83513 9.5V12.288C3.83513 14.267 2.97541 16.135 1.46714 17.421C1.0815 17.754 0.860352 18.238 0.860352 18.7499C0.860352 19.7151 1.63872 20.5001 2.59558 20.5001H18.9568C19.9139 20.5001 20.6922 19.7151 20.6922 18.7499C20.6922 18.238 20.4711 17.754 20.0764 17.4131Z" fill="#463DA8"/>
<path d="M10.7759 24.5C12.5718 24.5 14.0741 23.2089 14.419 21.5H7.13281C7.47797 23.2089 8.98024 24.5 10.7759 24.5Z" fill="#463DA8"/>
</svg>
