<svg width="16" height="16" viewBox="0 0 16 16" fill="none" xmlns="http://www.w3.org/2000/svg">
<path d="M14.929 13.9906L11.0246 10.0283C10.8387 9.83962 10.5598 9.74528 10.2809 9.74528C11.0246 8.80189 11.4894 7.48113 11.4894 6.16038C11.4894 3.04717 8.97942 0.5 5.91169 0.5C2.84395 0.5 0.333984 3.04717 0.333984 6.16038C0.333984 9.27359 2.84395 11.8208 5.91169 11.8208C7.21315 11.8208 8.51462 11.3491 9.44423 10.5C9.44423 10.783 9.44423 11.066 9.72312 11.2547L13.6275 15.217C13.8134 15.4057 14.0923 15.5 14.2782 15.5C14.4642 15.5 14.743 15.4057 14.929 15.217C15.3008 14.934 15.3008 14.3679 14.929 13.9906ZM5.91169 10.4057C3.58764 10.4057 1.72841 8.51887 1.72841 6.16038C1.72841 3.80189 3.58764 1.91509 5.91169 1.91509C8.23573 1.91509 10.095 3.80189 10.095 6.16038C10.095 8.51887 8.23573 10.4057 5.91169 10.4057Z" fill="#1D1D1D"/>
</svg>
