<svg width="21" height="20" viewBox="0 0 21 20" fill="none" xmlns="http://www.w3.org/2000/svg">
<path d="M10.8945 8.9C10.2845 8.9 9.79453 9.39 9.79453 10C9.79453 10.61 10.2845 11.1 10.8945 11.1C11.5045 11.1 11.9945 10.61 11.9945 10C11.9945 9.39 11.5045 8.9 10.8945 8.9ZM10.8945 0C5.37453 0 0.894531 4.48 0.894531 10C0.894531 15.52 5.37453 20 10.8945 20C16.4145 20 20.8945 15.52 20.8945 10C20.8945 4.48 16.4145 0 10.8945 0ZM13.0845 12.19L4.89453 16L8.70453 7.81L16.8945 4L13.0845 12.19Z" fill="#EE2A64"/>
</svg>
