<svg width="21" height="21" viewBox="0 0 21 21" fill="none" xmlns="http://www.w3.org/2000/svg">
<path d="M20.3573 9.19904C20.3568 9.19858 20.3564 9.19812 20.3559 9.19766L12.1967 1.03955C11.8489 0.69165 11.3865 0.5 10.8947 0.5C10.4028 0.5 9.94043 0.691498 9.59249 1.0394L1.43751 9.19339C1.43477 9.19614 1.43202 9.19904 1.42927 9.20178C0.71509 9.92001 0.716311 11.0853 1.43278 11.8017C1.76012 12.1292 2.19244 12.3188 2.65468 12.3387C2.67345 12.3405 2.69237 12.3414 2.71145 12.3414H3.03665V18.3453C3.03665 19.5334 4.00339 20.5 5.19186 20.5H8.38402C8.70754 20.5 8.97002 20.2377 8.97002 19.9141V15.207C8.97002 14.6649 9.41105 14.2239 9.95325 14.2239H11.8361C12.3783 14.2239 12.8193 14.6649 12.8193 15.207V19.9141C12.8193 20.2377 13.0816 20.5 13.4053 20.5H16.5974C17.7859 20.5 18.7527 19.5334 18.7527 18.3453V12.3414H19.0542C19.5459 12.3414 20.0083 12.1499 20.3564 11.802C21.0736 11.0844 21.0739 9.91711 20.3573 9.19904Z" fill="white"/>
</svg>
