<?xml version="1.0" encoding="iso-8859-1"?>
<svg version="1.1" id="Layer_1" xmlns="http://www.w3.org/2000/svg" xmlns:xlink="http://www.w3.org/1999/xlink" x="0px" y="0px"
	 viewBox="0 0 512 512" fill="white" xml:space="preserve">
<g>
	<g>
		<path d="M255.997,136.609c-26.826,0-51.045,11.359-68.112,29.515c18.052,17.917,42.281,27.997,68.112,27.997
			s50.06-10.081,68.112-27.997C307.042,147.968,282.823,136.609,255.997,136.609z"/>
	</g>
</g>
<g>
	<g>
		<path d="M341.291,191.802c-23.211,21.027-53.318,32.766-85.29,32.766s-62.081-11.738-85.29-32.766
			c-5.275,11.698-8.214,24.668-8.214,38.311v41.017c-0.002,43.448,29.786,80.069,70.012,90.515c0.072,0.018,0.143,0.039,0.215,0.057
			c0.675,0.174,1.354,0.339,2.035,0.497c0.405,0.093,0.811,0.182,1.218,0.27c0.82,0.18,1.644,0.348,2.472,0.506
			c0.613,0.117,1.227,0.228,1.843,0.333c0.406,0.069,0.811,0.139,1.218,0.202c0.966,0.15,1.935,0.287,2.909,0.407
			c0.301,0.038,0.603,0.069,0.905,0.104c0.898,0.103,1.8,0.193,2.706,0.27c0.2,0.017,0.399,0.038,0.6,0.054
			c1.074,0.084,2.153,0.146,3.235,0.194c0.258,0.011,0.517,0.02,0.775,0.029c1.116,0.04,2.236,0.067,3.36,0.067
			s2.243-0.027,3.36-0.067c0.259-0.009,0.517-0.018,0.775-0.029c1.082-0.048,2.161-0.11,3.235-0.194
			c0.201-0.016,0.4-0.037,0.6-0.054c0.905-0.076,1.806-0.167,2.706-0.27c0.301-0.034,0.604-0.066,0.905-0.104
			c0.974-0.121,1.943-0.257,2.909-0.407c0.407-0.064,0.813-0.134,1.218-0.202c0.616-0.104,1.23-0.216,1.843-0.333
			c0.828-0.158,1.652-0.327,2.472-0.506c0.406-0.088,0.813-0.176,1.218-0.27c0.681-0.158,1.359-0.324,2.035-0.497
			c0.072-0.018,0.143-0.038,0.215-0.057c40.225-10.446,70.014-47.066,70.014-90.515v-41.017
			C349.505,216.47,346.566,203.499,341.291,191.802z"/>
	</g>
</g>
<g>
	<g>
		<path d="M414.345,355.903c-12.102-14.841-28.12-26.056-45.983-32.37c-20.146,43.328-63.642,71.548-112.365,71.548
			c-48.724,0-92.22-28.219-112.365-71.548c-17.863,6.315-33.881,17.529-45.983,32.37c-15.025,18.425-23.3,41.695-23.3,65.521V512
			h88.47c-2.372-5.753-3.689-12.049-3.689-18.648c0-6.599,1.317-12.894,3.689-18.648h-47.518v-62.706h30.447v32.259h62.478h158.021
			v-32.259h30.447v62.706H208.226c-10.283,0-18.648,8.366-18.648,18.648S197.943,512,208.226,512h229.42v-90.576
			C437.645,397.597,429.371,374.328,414.345,355.903z"/>
	</g>
</g>
<g>
	<g>
		<rect x="240.77" width="30.447" height="73.387"/>
	</g>
</g>
<g>
	<g>
		<rect x="350.394" y="75.776" transform="matrix(0.7071 -0.7071 0.7071 0.7071 49.029 300.3647)" width="73.386" height="30.446"/>
	</g>
</g>
<g>
	<g>
		<rect x="404.705" y="206.865" width="73.387" height="30.447"/>
	</g>
</g>
<g>
	<g>
		<rect x="33.908" y="206.865" width="73.387" height="30.447"/>
	</g>
</g>
<g>
	<g>
		
			<rect x="109.685" y="54.302" transform="matrix(0.7071 -0.7071 0.7071 0.7071 -27.7583 114.9753)" width="30.446" height="73.386"/>
	</g>
</g>
<g>
</g>
<g>
</g>
<g>
</g>
<g>
</g>
<g>
</g>
<g>
</g>
<g>
</g>
<g>
</g>
<g>
</g>
<g>
</g>
<g>
</g>
<g>
</g>
<g>
</g>
<g>
</g>
<g>
</g>
</svg>
