<svg width="19" height="23" viewBox="0 0 19 23" fill="none" xmlns="http://www.w3.org/2000/svg">
<path d="M18.8945 4.5L9.89453 0.5L0.894531 4.5V10.5C0.894531 16.05 4.73453 21.24 9.89453 22.5C12.1945 21.94 14.2245 20.6 15.7745 18.79L12.6545 15.67C10.7145 16.96 8.07453 16.74 6.36453 15.03C4.41453 13.08 4.41453 9.91 6.36453 7.96C8.31453 6.01 11.4845 6.01 13.4345 7.96C15.1445 9.67 15.3545 12.31 14.0745 14.25L16.9745 17.15C18.1845 15.19 18.8945 12.88 18.8945 10.5V4.5Z" fill="white"/>
<path d="M9.89453 14.5C11.5514 14.5 12.8945 13.1569 12.8945 11.5C12.8945 9.84315 11.5514 8.5 9.89453 8.5C8.23768 8.5 6.89453 9.84315 6.89453 11.5C6.89453 13.1569 8.23768 14.5 9.89453 14.5Z" fill="white"/>
</svg>
